<svg data-v-423bf9ae="" xmlns="http://www.w3.org/2000/svg" viewBox="0 0 441 90" class="iconLeft"><!----><!----><!----><g data-v-423bf9ae="" id="71c76cc5-b5ac-41a6-a78d-bfd3358a1ee5" fill="black" transform="matrix(4.583651255101593,0,0,4.583651255101593,107.06571359765005,-27.12375358784419)"><path d="M8.37 16.67L8.37 16.67L8.37 16.67Q8.37 16.24 8.23 15.91L8.23 15.91L8.23 15.91Q8.10 15.59 7.84 15.37L7.84 15.37L7.84 15.37Q7.57 15.16 7.26 15.02L7.26 15.02L7.26 15.02Q6.95 14.88 6.50 14.81L6.50 14.81L6.50 14.81Q5.70 14.69 4.71 14.69L4.71 14.69L3.17 14.69L3.17 17.34L3.17 17.34Q3.17 18.01 3.39 18.28L3.39 18.28L3.39 18.28Q3.62 18.55 4.25 18.55L4.25 18.55L5.38 18.55L5.38 18.55Q7.15 18.55 7.83 17.98L7.83 17.98L7.83 17.98Q8.37 17.53 8.37 16.67ZM0.67 10.46L0.67 10.46L0.67 10.46Q0.66 10.43 0.65 10.39L0.65 10.39L0.65 10.39Q0.64 10.34 0.64 10.21L0.64 10.21L0.64 10.21Q0.64 10.08 0.75 9.96L0.75 9.96L0.75 9.96Q0.85 9.83 1.12 9.78L1.12 9.78L1.12 9.78Q1.46 9.72 2.41 9.72L2.41 9.72L5.05 9.72L5.05 9.72Q9.18 9.72 9.18 12.10L9.18 12.10L9.18 12.10Q9.18 12.95 8.62 13.44L8.62 13.44L8.62 13.44Q8.16 13.85 7.41 14.17L7.41 14.17L7.41 14.17Q9.88 14.95 9.88 16.73L9.88 16.73L9.88 16.73Q9.88 17.46 9.52 17.98L9.52 17.98L9.52 17.98Q9.16 18.50 8.52 18.79L8.52 18.79L8.52 18.79Q7.31 19.33 5.46 19.33L5.46 19.33L2.41 19.32L2.41 19.32Q1.46 19.32 1.20 19.27L1.20 19.27L1.20 19.27Q0.66 19.13 0.64 18.70L0.64 18.70L0.64 18.70Q0.64 18.46 1.11 18.40L1.11 18.40L1.11 18.40Q1.33 18.37 1.40 18.33L1.40 18.33L1.40 18.33Q1.67 18.22 1.67 17.85L1.67 17.85L1.67 11.18L1.67 11.18Q1.67 10.69 1.16 10.62L1.16 10.62L1.16 10.62Q1.06 10.61 0.98 10.60L0.98 10.60L0.98 10.60Q0.90 10.59 0.84 10.58L0.84 10.58L0.84 10.58Q0.79 10.57 0.77 10.55L0.77 10.55L0.77 10.55Q0.75 10.54 0.71 10.52L0.71 10.52L0.71 10.52Q0.68 10.49 0.67 10.46ZM3.17 13.90L5.44 13.90L5.44 13.90Q7.10 13.90 7.61 13.07L7.61 13.07L7.61 13.07Q7.80 12.76 7.80 12.34L7.80 12.34L7.80 12.34Q7.80 11.93 7.66 11.62L7.66 11.62L7.66 11.62Q7.53 11.32 7.26 11.13L7.26 11.13L7.26 11.13Q6.99 10.94 6.69 10.81L6.69 10.81L6.69 10.81Q6.38 10.69 5.95 10.64L5.95 10.64L5.95 10.64Q5.22 10.53 4.47 10.53L4.47 10.53L4.47 10.53Q3.72 10.53 3.44 10.74L3.44 10.74L3.44 10.74Q3.17 10.95 3.17 11.52L3.17 11.52L3.17 13.90ZM11.67 14.98L11.67 14.98L11.67 14.98Q11.42 14.98 11.10 14.78L11.10 14.78L11.10 14.78Q10.78 14.58 10.78 14.26L10.78 14.26L10.78 14.26Q10.78 13.93 10.96 13.64L10.96 13.64L10.96 13.64Q11.15 13.36 11.44 13.18L11.44 13.18L11.44 13.18Q11.74 13.00 12.13 12.87L12.13 12.87L12.13 12.87Q12.84 12.65 13.66 12.65L13.66 12.65L13.66 12.65Q15.04 12.65 15.66 13.26L15.66 13.26L15.66 13.26Q16.29 13.87 16.29 15.28L16.29 15.28L16.28 17.29L16.28 17.29Q16.28 18.03 16.47 18.21L16.47 18.21L16.47 18.21Q16.52 18.26 16.77 18.33L16.77 18.33L16.77 18.33Q17.47 18.55 17.47 18.67L17.47 18.67L17.47 18.67Q17.47 19.39 16.00 19.39L16.00 19.39L16.00 19.39Q15.44 19.39 15.27 19.14L15.27 19.14L15.27 19.14Q15.11 18.89 15.09 18.25L15.09 18.25L15.09 18.25Q14.79 18.80 14.16 19.14L14.16 19.14L14.16 19.14Q13.53 19.48 12.81 19.48L12.81 19.48L12.81 19.48Q12.09 19.48 11.59 19.30L11.59 19.30L11.59 19.30Q11.09 19.11 10.78 18.70L10.78 18.70L10.78 18.70Q10.47 18.29 10.47 17.81L10.47 17.81L10.47 17.81Q10.47 17.33 10.58 17.04L10.58 17.04L10.58 17.04Q10.69 16.75 10.86 16.55L10.86 16.55L10.86 16.55Q11.02 16.35 11.30 16.19L11.30 16.19L11.30 16.19Q11.59 16.04 11.83 15.94L11.83 15.94L11.83 15.94Q12.08 15.85 12.47 15.78L12.47 15.78L12.47 15.78Q13.04 15.67 13.43 15.62L13.43 15.62L13.43 15.62Q13.82 15.58 13.84 15.57L13.84 15.57L13.84 15.57Q13.88 15.57 14.30 15.52L14.30 15.52L14.30 15.52Q14.73 15.48 14.98 15.34L14.98 15.34L14.98 15.34Q14.98 14.04 14.63 13.64L14.63 13.64L14.63 13.64Q14.32 13.30 13.62 13.30L13.62 13.30L13.62 13.30Q12.91 13.30 12.56 13.66L12.56 13.66L12.56 13.66Q12.21 14.02 12.21 14.80L12.21 14.80L12.22 14.95L12.22 14.95Q11.93 14.98 11.67 14.98ZM14.98 15.96L14.98 15.96L14.98 15.96Q14.51 16.13 13.93 16.19L13.93 16.19L13.93 16.19Q13.34 16.26 13.01 16.34L13.01 16.34L13.01 16.34Q12.67 16.43 12.45 16.56L12.45 16.56L12.45 16.56Q11.93 16.86 11.93 17.60L11.93 17.60L11.93 17.60Q11.93 18.77 13.30 18.77L13.30 18.77L13.30 18.77Q14.48 18.77 14.79 17.64L14.79 17.64L14.79 17.64Q14.98 17.00 14.98 15.96ZM20.15 19.32L20.15 19.32L19.56 19.33L19.56 19.33Q18.66 19.33 18.45 19.05L18.45 19.05L18.45 19.05Q18.35 18.93 18.35 18.75L18.35 18.75L18.35 18.75Q18.35 18.58 18.49 18.51L18.49 18.51L18.49 18.51Q18.63 18.44 18.80 18.44L18.80 18.44L18.80 18.44Q18.96 18.43 19.10 18.33L19.10 18.33L19.10 18.33Q19.24 18.23 19.24 18.01L19.24 18.01L19.24 10.79L19.24 10.79Q19.24 10.17 18.75 10.12L18.75 10.12L18.75 10.12Q18.70 10.12 18.63 10.11L18.63 10.11L18.63 10.11Q18.55 10.10 18.52 10.10L18.52 10.10L18.52 10.10Q18.48 10.10 18.43 10.09L18.43 10.09L18.43 10.09Q18.38 10.08 18.36 10.06L18.36 10.06L18.36 10.06Q18.33 10.05 18.31 10.03L18.31 10.03L18.31 10.03Q18.26 9.99 18.26 9.83L18.26 9.83L18.26 9.83Q18.26 9.67 18.46 9.50L18.46 9.50L18.46 9.50Q18.85 9.19 19.50 9.19L19.50 9.19L19.50 9.19Q20.19 9.19 20.31 9.27L20.31 9.27L20.31 9.27Q20.54 9.43 20.54 9.70L20.54 9.70L20.54 15.68L20.54 15.68Q20.79 15.49 21.72 14.82L21.72 14.82L21.72 14.82Q23.54 13.51 23.54 13.38L23.54 13.38L23.54 13.38Q23.54 13.23 23.02 13.06L23.02 13.06L23.02 13.06Q23.04 12.44 24.17 12.44L24.17 12.44L25.09 12.44L25.09 12.44Q26.82 12.44 26.82 12.63L26.82 12.63L26.82 12.63Q26.82 12.72 26.62 12.92L26.62 12.92L26.62 12.92Q26.43 13.11 26.22 13.23L26.22 13.23L26.22 13.23Q25.77 13.23 25.19 13.54L25.19 13.54L25.19 13.54Q24.60 13.84 23.75 14.48L23.75 14.48L22.57 15.35L24.71 17.62L24.71 17.62Q25.10 18.03 25.42 18.24L25.42 18.24L25.42 18.24Q25.74 18.46 26.00 18.52L26.00 18.52L26.00 18.52Q26.27 18.59 26.40 18.62L26.40 18.62L26.40 18.62Q26.54 18.65 26.60 18.66L26.60 18.66L26.60 18.66Q26.66 18.68 26.76 18.71L26.76 18.71L26.76 18.71Q26.85 18.75 26.90 18.79L26.90 18.79L26.90 18.79Q27.02 18.90 27.02 19.06L27.02 19.06L27.02 19.06Q27.02 19.39 25.96 19.39L25.96 19.39L25.63 19.39L25.63 19.39Q24.98 19.39 24.74 19.33L24.74 19.33L24.74 19.33Q24.49 19.27 24.22 19.01L24.22 19.01L24.22 19.01Q23.20 18.05 21.70 15.89L21.70 15.89L20.54 16.68L20.54 18.01L20.54 18.01Q20.54 18.41 20.98 18.43L20.98 18.43L20.98 18.43Q21.42 18.46 21.42 18.79L21.42 18.79L21.42 18.79Q21.42 19.16 21.01 19.25L21.01 19.25L21.01 19.25Q20.69 19.32 20.15 19.32ZM29.16 9.93L29.16 9.93L29.16 9.93Q29.52 9.93 29.85 10.12L29.85 10.12L29.85 10.12Q30.17 10.31 30.17 10.66L30.17 10.66L30.17 10.66Q30.17 11.01 29.89 11.26L29.89 11.26L29.89 11.26Q29.61 11.50 29.21 11.50L29.21 11.50L29.21 11.50Q28.82 11.50 28.54 11.27L28.54 11.27L28.54 11.27Q28.25 11.03 28.25 10.73L28.25 10.73L28.25 10.73Q28.25 10.42 28.52 10.17L28.52 10.17L28.52 10.17Q28.79 9.93 29.16 9.93ZM27.17 20.63L27.17 20.63L27.17 20.63Q27.17 20.22 27.80 20.07L27.80 20.07L27.80 20.07Q28.07 20.01 28.33 19.95L28.33 19.95L28.33 19.95Q28.98 19.80 28.98 19.44L28.98 19.44L28.98 19.44Q28.98 19.20 28.91 18.92L28.91 18.92L28.91 18.92Q28.83 18.63 28.82 18.55L28.82 18.55L28.75 18.21L28.75 14.34L28.75 14.34Q28.75 13.72 28.27 13.67L28.27 13.67L28.27 13.67Q28.22 13.67 28.14 13.66L28.14 13.66L28.14 13.66Q28.07 13.65 28.03 13.65L28.03 13.65L28.03 13.65Q28 13.64 27.95 13.63L27.95 13.63L27.95 13.63Q27.90 13.62 27.87 13.61L27.87 13.61L27.87 13.61Q27.85 13.60 27.82 13.58L27.82 13.58L27.82 13.58Q27.77 13.54 27.77 13.38L27.77 13.38L27.77 13.38Q27.77 13.22 27.98 13.05L27.98 13.05L27.98 13.05Q28.37 12.74 29.02 12.74L29.02 12.74L29.02 12.74Q29.71 12.74 29.83 12.82L29.83 12.82L29.83 12.82Q30.06 12.98 30.06 13.25L30.06 13.25L30.06 18.28L30.06 18.28Q30.06 19.72 29.60 20.37L29.60 20.37L29.60 20.37Q29.15 21.02 27.95 21.16L27.95 21.16L27.95 21.16Q27.93 21.16 27.88 21.16L27.88 21.16L27.84 21.16L27.84 21.16Q27.17 21.16 27.17 20.63ZM32.77 14.98L32.77 14.98L32.77 14.98Q32.52 14.98 32.20 14.78L32.20 14.78L32.20 14.78Q31.88 14.58 31.88 14.26L31.88 14.26L31.88 14.26Q31.88 13.93 32.07 13.64L32.07 13.64L32.07 13.64Q32.25 13.36 32.55 13.18L32.55 13.18L32.55 13.18Q32.84 13.00 33.23 12.87L33.23 12.87L33.23 12.87Q33.94 12.65 34.76 12.65L34.76 12.65L34.76 12.65Q36.14 12.65 36.77 13.26L36.77 13.26L36.77 13.26Q37.39 13.87 37.39 15.28L37.39 15.28L37.39 17.29L37.39 17.29Q37.39 18.03 37.57 18.21L37.57 18.21L37.57 18.21Q37.62 18.26 37.87 18.33L37.87 18.33L37.87 18.33Q38.57 18.55 38.57 18.67L38.57 18.67L38.57 18.67Q38.57 19.39 37.10 19.39L37.10 19.39L37.10 19.39Q36.54 19.39 36.38 19.14L36.38 19.14L36.38 19.14Q36.21 18.89 36.20 18.25L36.20 18.25L36.20 18.25Q35.89 18.80 35.26 19.14L35.26 19.14L35.26 19.14Q34.63 19.48 33.91 19.48L33.91 19.48L33.91 19.48Q33.20 19.48 32.70 19.30L32.70 19.30L32.70 19.30Q32.20 19.11 31.89 18.70L31.89 18.70L31.89 18.70Q31.58 18.29 31.58 17.81L31.58 17.81L31.58 17.81Q31.58 17.33 31.68 17.04L31.68 17.04L31.68 17.04Q31.79 16.75 31.96 16.55L31.96 16.55L31.96 16.55Q32.12 16.35 32.41 16.19L32.41 16.19L32.41 16.19Q32.69 16.04 32.94 15.94L32.94 15.94L32.94 15.94Q33.18 15.85 33.57 15.78L33.57 15.78L33.57 15.78Q34.15 15.67 34.54 15.62L34.54 15.62L34.54 15.62Q34.92 15.58 34.94 15.57L34.94 15.57L34.94 15.57Q34.98 15.57 35.41 15.52L35.41 15.52L35.41 15.52Q35.83 15.48 36.08 15.34L36.08 15.34L36.08 15.34Q36.08 14.04 35.73 13.64L35.73 13.64L35.73 13.64Q35.42 13.30 34.72 13.30L34.72 13.30L34.72 13.30Q34.02 13.30 33.66 13.66L33.66 13.66L33.66 13.66Q33.31 14.02 33.31 14.80L33.31 14.80L33.32 14.95L33.32 14.95Q33.03 14.98 32.77 14.98ZM36.08 15.96L36.08 15.96L36.08 15.96Q35.62 16.13 35.03 16.19L35.03 16.19L35.03 16.19Q34.45 16.26 34.11 16.34L34.11 16.34L34.11 16.34Q33.78 16.43 33.55 16.56L33.55 16.56L33.55 16.56Q33.03 16.86 33.03 17.60L33.03 17.60L33.03 17.60Q33.03 18.77 34.40 18.77L34.40 18.77L34.40 18.77Q35.58 18.77 35.90 17.64L35.90 17.64L35.90 17.64Q36.08 17.00 36.08 15.96ZM47.50 16.36L47.50 16.36L47.50 16.36Q47.50 15.66 47.24 15.02L47.24 15.02L47.24 15.02Q46.98 14.37 46.48 13.94L46.48 13.94L46.48 13.94Q45.98 13.51 45.36 13.51L45.36 13.51L45.36 13.51Q44.50 13.51 43.78 14.18L43.78 14.18L43.78 17.94L43.78 17.94Q44.59 18.59 45.53 18.59L45.53 18.59L45.53 18.59Q46.46 18.59 46.98 17.97L46.98 17.97L46.98 17.97Q47.50 17.36 47.50 16.36ZM42.75 19.37L42.75 19.37L42.75 19.37Q42.48 19.37 42.48 18.75L42.48 18.75L42.48 10.79L42.48 10.79Q42.48 10.17 41.99 10.12L41.99 10.12L41.99 10.12Q41.94 10.12 41.86 10.11L41.86 10.11L41.86 10.11Q41.79 10.10 41.75 10.10L41.75 10.10L41.75 10.10Q41.72 10.10 41.67 10.09L41.67 10.09L41.67 10.09Q41.62 10.08 41.59 10.06L41.59 10.06L41.59 10.06Q41.57 10.05 41.55 10.03L41.55 10.03L41.55 10.03Q41.50 9.99 41.50 9.83L41.50 9.83L41.50 9.83Q41.50 9.67 41.71 9.50L41.71 9.50L41.71 9.50Q42.10 9.19 42.75 9.19L42.75 9.19L42.75 9.19Q43.44 9.19 43.55 9.27L43.55 9.27L43.55 9.27Q43.78 9.43 43.78 9.70L43.78 9.70L43.78 13.48L43.78 13.48Q44.80 12.61 46.10 12.61L46.10 12.61L46.10 12.61Q47.40 12.61 48.19 13.52L48.19 13.52L48.19 13.52Q48.98 14.42 48.98 15.89L48.98 15.89L48.98 15.89Q48.98 16.80 48.58 17.62L48.58 17.62L48.58 17.62Q48.18 18.43 47.46 18.94L47.46 18.94L47.46 18.94Q46.74 19.44 45.88 19.44L45.88 19.44L45.88 19.44Q44.65 19.44 43.49 18.67L43.49 18.67L43.49 18.67Q43.48 18.68 43.31 18.92L43.31 18.92L43.31 18.92Q42.97 19.37 42.75 19.37ZM51.12 14.98L51.12 14.98L51.12 14.98Q50.86 14.98 50.54 14.78L50.54 14.78L50.54 14.78Q50.22 14.58 50.22 14.26L50.22 14.26L50.22 14.26Q50.22 13.93 50.41 13.64L50.41 13.64L50.41 13.64Q50.59 13.36 50.89 13.18L50.89 13.18L50.89 13.18Q51.18 13.00 51.57 12.87L51.57 12.87L51.57 12.87Q52.28 12.65 53.10 12.65L53.10 12.65L53.10 12.65Q54.48 12.65 55.11 13.26L55.11 13.26L55.11 13.26Q55.73 13.87 55.73 15.28L55.73 15.28L55.73 17.29L55.73 17.29Q55.73 18.03 55.91 18.21L55.91 18.21L55.91 18.21Q55.96 18.26 56.21 18.33L56.21 18.33L56.21 18.33Q56.91 18.55 56.91 18.67L56.91 18.67L56.91 18.67Q56.91 19.39 55.44 19.39L55.44 19.39L55.44 19.39Q54.89 19.39 54.72 19.14L54.72 19.14L54.72 19.14Q54.55 18.89 54.54 18.25L54.54 18.25L54.54 18.25Q54.23 18.80 53.60 19.14L53.60 19.14L53.60 19.14Q52.97 19.48 52.25 19.48L52.25 19.48L52.25 19.48Q51.54 19.48 51.04 19.30L51.04 19.30L51.04 19.30Q50.54 19.11 50.23 18.70L50.23 18.70L50.23 18.70Q49.92 18.29 49.92 17.81L49.92 17.81L49.92 17.81Q49.92 17.33 50.03 17.04L50.03 17.04L50.03 17.04Q50.13 16.75 50.30 16.55L50.30 16.55L50.30 16.55Q50.46 16.35 50.75 16.19L50.75 16.19L50.75 16.19Q51.03 16.04 51.28 15.94L51.28 15.94L51.28 15.94Q51.52 15.85 51.91 15.78L51.91 15.78L51.91 15.78Q52.49 15.67 52.88 15.62L52.88 15.62L52.88 15.62Q53.27 15.58 53.28 15.57L53.28 15.57L53.28 15.57Q53.32 15.57 53.75 15.52L53.75 15.52L53.75 15.52Q54.17 15.48 54.42 15.34L54.42 15.34L54.42 15.34Q54.42 14.04 54.07 13.64L54.07 13.64L54.07 13.64Q53.76 13.30 53.06 13.30L53.06 13.30L53.06 13.30Q52.36 13.30 52.00 13.66L52.00 13.66L52.00 13.66Q51.65 14.02 51.65 14.80L51.65 14.80L51.66 14.95L51.66 14.95Q51.37 14.98 51.12 14.98ZM54.42 15.96L54.42 15.96L54.42 15.96Q53.96 16.13 53.37 16.19L53.37 16.19L53.37 16.19Q52.79 16.26 52.45 16.34L52.45 16.34L52.45 16.34Q52.12 16.43 51.89 16.56L51.89 16.56L51.89 16.56Q51.37 16.86 51.37 17.60L51.37 17.60L51.37 17.60Q51.37 18.77 52.74 18.77L52.74 18.77L52.74 18.77Q53.92 18.77 54.24 17.64L54.24 17.64L54.24 17.64Q54.42 17.00 54.42 15.96ZM63.94 15.07L63.94 15.07L63.94 15.07Q63.94 15.69 63.46 16.16L63.46 16.16L63.46 16.16Q62.54 17.08 60.83 17.08L60.83 17.08L60.83 17.08Q60.50 17.08 60.12 17.02L60.12 17.02L60.12 17.02Q59.75 16.95 59.65 16.94L59.65 16.94L59.65 16.93L59.65 16.93Q59.13 17.37 59.13 17.70L59.13 17.70L59.13 17.70Q59.13 18.00 59.42 18.10L59.42 18.10L59.42 18.10Q59.84 18.25 60.59 18.27L60.59 18.27L60.59 18.27Q61.33 18.28 61.75 18.29L61.75 18.29L61.75 18.29Q62.17 18.30 62.65 18.33L62.65 18.33L62.65 18.33Q63.14 18.37 63.51 18.47L63.51 18.47L63.51 18.47Q63.88 18.57 64.20 18.73L64.20 18.73L64.20 18.73Q64.85 19.07 64.85 19.89L64.85 19.89L64.85 19.89Q64.85 20.51 64.53 20.98L64.53 20.98L64.53 20.98Q64.21 21.45 63.67 21.72L63.67 21.72L63.67 21.72Q62.60 22.28 61.11 22.28L61.11 22.28L61.11 22.28Q59.83 22.28 58.85 21.92L58.85 21.92L58.85 21.92Q58.32 21.73 58.02 21.36L58.02 21.36L58.02 21.36Q57.71 20.99 57.71 20.47L57.71 20.47L57.71 20.47Q57.71 19.50 58.69 18.97L58.69 18.97L58.69 18.97Q58.43 18.72 58.33 18.49L58.33 18.49L58.33 18.49Q58.24 18.27 58.24 17.96L58.24 17.96L58.24 17.96Q58.24 17.66 58.30 17.50L58.30 17.50L58.30 17.50Q58.35 17.34 58.47 17.20L58.47 17.20L58.47 17.20Q58.62 17.02 59.03 16.71L59.03 16.71L59.03 16.71Q58.39 16.39 58.05 15.99L58.05 15.99L58.05 15.99Q57.71 15.59 57.71 14.98L57.71 14.98L57.71 14.98Q57.71 14.37 57.99 13.92L57.99 13.92L57.99 13.92Q58.28 13.47 58.74 13.20L58.74 13.20L58.74 13.20Q59.68 12.66 60.85 12.66L60.85 12.66L60.85 12.66Q61.17 12.66 62.07 12.83L62.07 12.83L62.07 12.83Q62.97 13.00 63.08 13.00L63.08 13.00L63.08 13.00Q63.69 13.00 63.79 12.39L63.79 12.39L63.79 12.39Q64.67 12.39 64.67 13.08L64.67 13.08L64.67 13.08Q64.67 13.42 64.47 13.61L64.47 13.61L64.47 13.61Q64.26 13.81 64.00 13.81L64.00 13.81L64.00 13.81Q63.74 13.81 63.44 13.78L63.44 13.78L63.44 13.78Q63.64 13.95 63.79 14.31L63.79 14.31L63.79 14.31Q63.94 14.68 63.94 15.07ZM60.87 13.25L60.87 13.25L60.87 13.25Q60.14 13.25 59.62 13.68L59.62 13.68L59.62 13.68Q59.10 14.11 59.10 14.81L59.10 14.81L59.10 14.81Q59.10 15.52 59.63 15.97L59.63 15.97L59.63 15.97Q60.16 16.42 60.93 16.42L60.93 16.42L60.93 16.42Q61.69 16.42 62.17 16.00L62.17 16.00L62.17 16.00Q62.64 15.58 62.64 14.90L62.64 14.90L62.64 14.90Q62.64 14.23 62.13 13.74L62.13 13.74L62.13 13.74Q61.61 13.25 60.87 13.25ZM60.99 21.48L60.99 21.48L60.99 21.48Q62.04 21.48 62.59 21.26L62.59 21.26L62.59 21.26Q63.14 21.03 63.35 20.74L63.35 20.74L63.35 20.74Q63.56 20.45 63.56 20.05L63.56 20.05L63.56 20.05Q63.56 19.21 60.29 19.21L60.29 19.21L60.29 19.21Q59.37 19.21 59.37 19.19L59.37 19.19L59.37 19.19Q58.85 19.71 58.85 20.19L58.85 20.19L58.85 20.19Q58.85 21.48 60.99 21.48ZM69.06 17.92L69.06 17.92L69.06 17.92Q70.79 14.26 70.79 14.05L70.79 14.05L70.79 14.05Q70.79 13.85 70.64 13.77L70.64 13.77L70.64 13.77Q70.49 13.69 70.31 13.67L70.31 13.67L70.31 13.67Q69.83 13.62 69.83 13.39L69.83 13.39L69.83 13.39Q69.83 12.77 71.30 12.77L71.30 12.77L71.57 12.77L71.57 12.77Q72.23 12.77 72.51 12.98L72.51 12.98L72.51 12.98Q72.80 13.19 72.80 13.38L72.80 13.38L72.80 13.38Q72.80 13.56 72.59 13.60L72.59 13.60L72.59 13.60Q72.17 13.68 71.96 13.84L71.96 13.84L71.96 13.84Q71.75 14 71.55 14.43L71.55 14.43L71.55 14.43Q71.35 14.86 70.89 15.90L70.89 15.90L70.89 15.90Q70.42 16.94 70.11 17.60L70.11 17.60L68.64 20.62L68.64 20.62Q68.41 21.11 68.04 21.43L68.04 21.43L68.04 21.43Q67.68 21.76 67.18 21.76L67.18 21.76L67.18 21.76Q66.68 21.76 66.31 21.51L66.31 21.51L66.31 21.51Q65.93 21.26 65.93 20.87L65.93 20.87L65.93 20.87Q65.93 20.47 66.17 20.24L66.17 20.24L66.17 20.24Q66.40 20.02 66.76 20.02L66.76 20.02L66.76 20.02Q67.12 20.02 67.40 20.19L67.40 20.19L67.40 20.19Q67.68 20.37 67.70 20.63L67.70 20.63L67.70 20.63Q68.24 19.76 68.43 19.28L68.43 19.28L68.43 19.28Q68.14 18.48 67.12 16.50L67.12 16.50L67.12 16.50Q66.10 14.51 65.99 14.28L65.99 14.28L65.99 14.28Q65.88 14.05 65.80 13.97L65.80 13.97L65.80 13.97Q65.72 13.88 65.60 13.82L65.60 13.82L65.60 13.82Q65.47 13.75 65.39 13.73L65.39 13.73L65.39 13.73Q65.31 13.70 65.13 13.65L65.13 13.65L65.13 13.65Q64.94 13.60 64.83 13.57L64.83 13.57L64.83 13.57Q64.72 13.54 64.72 13.36L64.72 13.36L64.72 13.36Q64.72 12.77 66.33 12.77L66.33 12.77L66.33 12.77Q67.32 12.77 67.60 12.87L67.60 12.87L67.60 12.87Q68.14 13.06 68.14 13.38L68.14 13.38L68.14 13.38Q68.14 13.59 67.73 13.67L67.73 13.67L67.73 13.67Q67.33 13.75 67.33 13.97L67.33 13.97L67.33 13.97Q67.33 13.99 67.57 14.62L67.57 14.62L67.57 14.62Q68.35 16.65 69.06 17.92Z"></path></g><!----><g data-v-423bf9ae="" id="72fc0813-0b18-4fb8-ad4c-079322d629ca" transform="matrix(1.4999937057759234,0,0,1.4999937057759234,0.0002523353834220643,1.0001255142330763)" stroke="none" fill="black"><g><path d="M14 44h6v-4h-6v4zm0 12h6v-4h-6v4zm0-6h6v-4h-6v4zm3-28c-2.757 0-5 2.243-5 5v32a1 1 0 1 0 2 0v-1h6v1a1 1 0 1 0 2 0V27c0-2.757-2.243-5-5-5z"></path><path d="M26 58h2V40h-2v18zM6 58h2V40H6v18zm27-39c1.304 0 2.416.835 2.829 2H32v-2h1zM17 2.25L30 12H4l13-9.75zM59 54h-2c-6.174 0-10-1.339-10-8 0-9.661-9.391-14.531-15-15.966V23h5a1 1 0 0 0 1-1c0-2.757-2.243-5-5-5h-1v-3h1a1 1 0 0 0 .6-1.8l-16-12a.999.999 0 0 0-1.2 0l-16 12a.998.998 0 0 0-.348 1.116A.998.998 0 0 0 1 14h1v25a1 1 0 0 0 1 1h1v19a1 1 0 0 0 1 1h4a1 1 0 0 0 1-1V27c0-3.86 3.141-7 7-7s7 3.14 7 7v32a1 1 0 0 0 1 1h4a1 1 0 0 0 1-1V40h1a1 1 0 0 0 1-1v-2.632c2.914.921 9 3.567 9 9.632 0 6.386 2.775 14 16 14h2a1 1 0 0 0 1-1v-4a1 1 0 0 0-1-1z"></path></g></g><!----></svg>